<svg enable-background="new 0 0 79.8 79.7" viewBox="0 0 79.8 79.7" xmlns="http://www.w3.org/2000/svg"><g fill="#963750"><path d="m79.8 39.8c0 22-17.9 39.9-39.9 39.9s-39.9-17.9-39.9-39.8c0-22 17.9-39.9 39.9-39.9 21.9 0 39.8 17.9 39.9 39.8zm-13.1 24.5c13-13.6 13.6-37.2-2.4-51.6-15.5-14-37.6-11.1-48.7.1 3.1 3.1 6.2 6.2 9.3 9.3.1-.2.1-.5.2-.8 1.2-4.9 5.5-6.3 9.3-3 4.5 3.8 4.8 10 .6 14.6.7.7 1.5 1.3 2.2 2 .9 1.1 1.9 1.6 3.4 1.7 1.4.1 3.1.6 4.1 1.5 1.4 1.4 2.3 3.3 3.4 5.1.6.9.8 2.1 1.5 2.8 2.3 2.5 4.6 5 6.7 7.7 3.1 4 7 7.2 10.4 10.6zm-10.5-5.7c-1.3 3.4-4 4.5-7.2 4.4-1.6 0-3.4-.4-4.8-1.2-3-1.7-5.8-1.7-8.8 0-1.2.7-2.6 1-4 1.2-5.3.6-8.9-2.9-8-8 .3-1.6 1.3-3.3 2.3-4.6s2.4-2.3 3.5-3.5c.6-.7 1.3-1.4 1.7-2.2 1.1-2.6 2-5.2 3.7-6.4-7.4-7.5-14.7-15.1-22-22.6-12.7 13.6-12.7 36.2 1.9 50.3s36.9 13.1 50 .6c-2.5-2.5-5.1-5-7.6-7.6-.3-.1-.5-.2-.7-.4zm-18.7-18.7c-.9 1.3-2.1 2.4-2.5 3.6-1 3.2-3.1 5.5-5.5 7.7-1 .9-2 2-2.6 3.3-1.3 2.8.2 5.2 3.3 5.2 1.4 0 2.8-.6 4.2-1 1.3-.4 2.6-1.1 3.9-1.4 2.4-.5 4.6.2 6.7 1.4 1.9 1 3.9 1.5 6 .8 2-.7 2.8-3.2 1.5-4.5-4.8-5-9.7-9.8-15-15.1zm-9.3-16.7c-.2 2.8 1.6 4.4 3.4 6 1.1 1 2.3.7 2.9-.7 1.1-2.6-.6-7-3.1-8.2-1.4-.6-2.3-.3-2.8 1.1-.2.6-.3 1.2-.4 1.8z"/><path d="m54.8 23.7c-.1 2.7-1.1 5.4-3.5 7.6-1.7 1.6-3.8 2.5-6.1 1.6-2.4-.9-3.3-2.8-3.6-5.2-.3-3.1.6-5.9 2.6-8.3 2-2.3 4.6-3.2 6.9-2.4 2.3.7 3.7 3.2 3.7 6.7zm-3.3-.3c0-1.4-.1-2.9-1.6-3.3-1.4-.5-2.3.6-3.2 1.5-1.3 1.6-2 3.4-1.8 5.5.1 1 .7 2.2 1.5 2.6.6.3 2-.3 2.7-.9 1.7-1.5 2.3-3.4 2.4-5.4z"/><path d="m49.9 39.6c.1-2.6 1.1-5.3 3.4-7.5 1.8-1.8 4-2.9 6.6-1.8 2.1.8 3.4 3.4 3.3 6.2-.2 2.9-1.2 5.4-3.2 7.6-2 2.1-4.6 2.9-6.7 2.1-2.1-.9-3.4-3.2-3.4-6.6zm3.3 0c0 3.1 1.3 4.2 3.2 3.1 2.2-1.3 3.8-5.1 3.2-7.6-.5-1.9-1.7-2.4-3.3-1.3-2.1 1.5-3 3.7-3.1 5.8z"/><path d="m29.9 39.4c0 4.5-2.2 7.2-5.4 7-3.7-.3-5.8-2.8-7-6-1.3-3.2-1.5-6.4 1-9.2 1.5-1.7 3.9-1.9 6.1-.6 3.6 2.2 5 5.5 5.3 8.8zm-3 .8c-.4-2.5-1.5-5-3.2-6.2-.7-.5-1.8-.8-2.5-.6-.6.2-1.1 1.4-1.2 2.1-.3 2.4.5 4.6 2.3 6.2.7.7 2.1 1.3 2.9 1 .8-.1 1.2-1.5 1.7-2.5z"/></g></svg>